<svg width="24" height="25" viewBox="0 0 24 25" fill="none" xmlns="http://www.w3.org/2000/svg">
<path d="M19.875 21.7344C17.8417 21.7344 15.8208 21.2344 13.8125 20.2344C11.8042 19.2344 10 17.9344 8.4 16.3344C6.8 14.7344 5.5 12.9302 4.5 10.9219C3.5 8.91354 3 6.89271 3 4.85938C3 4.54271 3.10833 4.27604 3.325 4.05938C3.54167 3.84271 3.80833 3.73438 4.125 3.73438H7.625C7.85833 3.73438 8.0625 3.81354 8.2375 3.97187C8.4125 4.13021 8.525 4.34271 8.575 4.60938L9.25 7.75938C9.28333 7.99271 9.27917 8.20521 9.2375 8.39687C9.19583 8.58854 9.10833 8.75104 8.975 8.88437L6.475 11.4094C7.40833 12.9594 8.45417 14.3094 9.6125 15.4594C10.7708 16.6094 12.0833 17.5844 13.55 18.3844L15.925 15.9344C16.0917 15.751 16.2833 15.6219 16.5 15.5469C16.7167 15.4719 16.9333 15.4594 17.15 15.5094L20.125 16.1594C20.375 16.2094 20.5833 16.3344 20.75 16.5344C20.9167 16.7344 21 16.9677 21 17.2344V20.6094C21 20.926 20.8917 21.1927 20.675 21.4094C20.4583 21.626 20.1917 21.7344 19.875 21.7344ZM5.725 10.0344L7.75 7.98438L7.175 5.23438H4.5C4.5 5.88438 4.6 6.59687 4.8 7.37187C5 8.14687 5.30833 9.03438 5.725 10.0344ZM14.95 19.1094C15.6333 19.426 16.375 19.6844 17.175 19.8844C17.975 20.0844 18.75 20.201 19.5 20.2344V17.5594L16.925 17.0344L14.95 19.1094Z" fill="#74676A"/>
</svg>
