<svg width="24" height="25" viewBox="0 0 24 25" fill="none" xmlns="http://www.w3.org/2000/svg">
<path d="M3.5 20.7344C3.1 20.7344 2.75 20.5844 2.45 20.2844C2.15 19.9844 2 19.6344 2 19.2344V6.23438C2 5.83438 2.15 5.48437 2.45 5.18437C2.75 4.88437 3.1 4.73438 3.5 4.73438H20.5C20.9 4.73438 21.25 4.88437 21.55 5.18437C21.85 5.48437 22 5.83438 22 6.23438V19.2344C22 19.6344 21.85 19.9844 21.55 20.2844C21.25 20.5844 20.9 20.7344 20.5 20.7344H3.5ZM12 13.1844L3.5 7.60938V19.2344H20.5V7.60938L12 13.1844ZM12 11.6844L20.4 6.23438H3.625L12 11.6844ZM3.5 7.60938V6.23438V19.2344V7.60938Z" fill="#74676A"/>
</svg>
