<svg width="52" height="52" xmlns="http://www.w3.org/2000/svg" viewBox="0 0 480 480.1"><defs><style>.cls-1{fill:#d03528;}.cls-2{fill:#fee2df;}.cls-3{fill:#fefefe;}.cls-4{fill:#feafa8;}.cls-5{fill:#d13629;}.cls-6{fill:#d1382c;}</style></defs><title>box_1</title><g id="Layer_2" data-name="Layer 2"><g id="Layer_1-2" data-name="Layer 1"><path class="cls-1" d="M239.92,480.1H12c-9.86,0-12-2.12-12-12q0-180,.11-359.93A25.63,25.63,0,0,1,2.63,97.23c14.77-30,29.88-59.81,44.65-89.8C49.91,2.08,53.35,0,59.35,0Q240.07.21,420.79,0c6,0,9.42,2.19,12,7.51,14.78,30,29.89,59.83,44.67,89.82a24.51,24.51,0,0,1,2.41,10.46q.18,180.22.1,360.43c0,9.76-2.15,11.87-12.12,11.87Zm-223.76-72V463.8H463.72V112.27H456c-.83-.05-1.66-.16-2.49-.16q-77,0-154,0c-1.1,0-2.21.22-3.56.37v6.22q0,71.49,0,143c0,4.09-.63,7.66-4.74,9.6s-7.32,0-10.36-2.67c-4.28-3.71-8.65-7.32-13-11l-27.54-23c-1.29,1-2.21,1.7-3.1,2.43q-19.47,16.07-38.91,32.15c-2.87,2.39-5.86,3.85-9.59,2.13-3.88-1.79-5-5-4.81-9,.06-1.16,0-2.33,0-3.5q0-70.49,0-141v-5.41H16v4.75q0,143.48,0,287C16,405.47,16.11,406.8,16.17,408.13ZM198.45,16.47c-1.93-.16-3.23-.35-4.52-.35Q129.47,16.09,65,16c-3.18,0-4.68,1.17-6,3.88C47,44.07,34.94,68.17,22.9,92.29c-.55,1.1-.89,2.29-1.39,3.59H185.24Zm83.37-.36c.23,2.32.31,4.1.6,5.84,3.82,22.94,7.81,45.86,11.41,68.84.65,4.15,1.93,5.43,6.2,5.42,51.3-.16,102.6-.1,153.9-.1h4.87c-.86-1.94-1.4-3.3-2-4.6-11.83-23.66-23.75-47.29-35.44-71-1.63-3.32-3.48-4.48-7.18-4.47-42.31.14-84.61.09-126.92.09Z"/><path class="cls-2" d="M16.17,408.13c-.05-1.33-.16-2.66-.16-4q0-143.48,0-287v-4.75H184v5.41q0,70.49,0,141c0,1.17.05,2.34,0,3.5-.22,4,.93,7.25,4.81,9,3.73,1.72,6.71.25,9.59-2.13q19.42-16.12,38.91-32.15c.89-.73,1.81-1.42,3.1-2.43l27.54,23c4.34,3.64,8.71,7.25,13,11,3,2.64,6.17,4.66,10.36,2.67s4.75-5.51,4.74-9.6q-.08-71.49,0-143v-6.22c1.35-.15,2.45-.37,3.56-.37q77,0,154,0c.83,0,1.66.1,2.49.16q0,114.92-.07,229.83A85,85,0,0,1,455,354a63.49,63.49,0,0,1-62.48,54.14l-168.38,0q-.08-38.2-.16-76.4c0-9.29-2.27-11.62-11.34-11.62H59.33c-8.94,0-11.31,2.34-11.33,11.12q-.08,38.45-.16,76.9Z"/><path class="cls-3" d="M224.17,408.13l168.38,0A63.49,63.49,0,0,0,455,354,85,85,0,0,0,456,342.1q.1-114.92.07-229.83h7.69V463.8H16.17V408.13H47.84c.06,5,.06,10,.18,15,.14,5.91,3.07,9,9,9q79,.07,158,0c5.91,0,8.85-3.06,9-9C224.11,418.12,224.11,413.13,224.17,408.13Z"/><path class="cls-4" d="M198.45,16.47,185.24,95.89H21.51c.5-1.3.84-2.5,1.39-3.59C34.94,68.17,47,44.07,59,19.91,60.33,17.2,61.84,16,65,16q64.45.17,128.91.09C195.22,16.12,196.51,16.31,198.45,16.47Z"/><path class="cls-4" d="M281.82,16.1h5.4c42.31,0,84.61,0,126.92-.09,3.7,0,5.54,1.15,7.18,4.47,11.69,23.74,23.61,47.36,35.44,71,.65,1.3,1.19,2.66,2,4.6h-4.87c-51.3,0-102.6-.06-153.9.1-4.27,0-5.55-1.27-6.2-5.42-3.6-23-7.58-45.9-11.41-68.84C282.13,20.2,282.05,18.42,281.82,16.1Z"/><path class="cls-1" d="M224.17,408.13c-.06,5-.06,10-.18,15-.15,5.9-3.09,9-9,9q-79,.07-158,0c-5.92,0-8.85-3.05-9-9-.12-5-.12-10-.18-15q.08-38.45.16-76.9c0-8.78,2.39-11.12,11.33-11.12H212.66c9.07,0,11.33,2.33,11.34,11.62Q224.08,369.93,224.17,408.13ZM207.6,416V336.41H64.4V416Z"/><path class="cls-4" d="M207.6,416H64.4V336.41H207.6ZM156,352.1c-8.65,0-17.3,0-25.95,0-6.37,0-9.94,2.86-10,7.88s3.51,8.1,9.79,8.11q26.2,0,52.4,0c6.25,0,9.85-3.07,9.76-8.13s-3.66-7.84-10-7.86C173.28,352.08,164.63,352.1,156,352.1Zm0,32c-8.65,0-17.3,0-25.95,0-6.36,0-9.94,2.87-10,7.89s3.51,8.09,9.79,8.1q26.2,0,52.4,0c6.25,0,9.85-3.07,9.75-8.14-.09-4.87-3.61-7.81-9.55-7.84C173.61,384.07,164.79,384.1,156,384.1Zm-63.79-32v0c-1.16,0-2.33,0-3.49,0-5.36.2-8.79,3.44-8.68,8.18.11,4.56,3.42,7.63,8.55,7.81a67.93,67.93,0,0,0,8-.05,8,8,0,0,0,.13-15.88A41.5,41.5,0,0,0,92.19,352.13Zm-.21,32c-1.16,0-2.33,0-3.49,0-5.1.23-8.41,3.33-8.47,7.89s3.25,7.83,8.26,8.1c1.16.06,2.32,0,3.49,0,8.49,0,12.31-2.55,12.21-8.16C103.88,386.51,100.19,384.09,92,384.1Z"/><path class="cls-5" d="M156,352.1c8.65,0,17.3,0,25.95,0,6.38,0,10,2.84,10,7.86s-3.52,8.12-9.76,8.13q-26.2,0-52.4,0c-6.28,0-9.86-3-9.79-8.11s3.64-7.86,10-7.88C138.69,352.08,147.34,352.1,156,352.1Z"/><path class="cls-5" d="M156,384.1c8.82,0,17.63,0,26.45,0,5.94,0,9.46,3,9.55,7.84.09,5.07-3.51,8.13-9.75,8.14q-26.2,0-52.4,0c-6.28,0-9.86-3-9.79-8.1s3.64-7.87,10-7.89C138.68,384.08,147.33,384.1,156,384.1Z"/><path class="cls-6" d="M92.19,352.13a41.5,41.5,0,0,1,4.48,0A8,8,0,0,1,96.54,368a67.93,67.93,0,0,1-8,.05c-5.13-.17-8.45-3.25-8.55-7.81-.11-4.74,3.32-8,8.68-8.18,1.16,0,2.32,0,3.49,0Z"/><path class="cls-6" d="M92,384.09c8.22,0,11.9,2.41,12,7.86.1,5.6-3.73,8.16-12.21,8.16-1.16,0-2.33,0-3.49,0-5-.28-8.32-3.54-8.26-8.1s3.37-7.66,8.47-7.89C89.65,384.05,90.82,384.1,92,384.09Z"/></g></g></svg>