<svg width="60" height="45" xmlns="http://www.w3.org/2000/svg" viewBox="0 0 512 387.19"><defs><style>.cls-1{fill:#d03528;}.cls-2{fill:#feafa8;}.cls-3{fill:#fefefe;}.cls-4{fill:#fee2df;}.cls-5{fill:#fde0dc;}</style></defs><title>envelope_1</title><g id="Layer_2" data-name="Layer 2"><g id="Layer_1-2" data-name="Layer 1"><path class="cls-1" d="M0,382.54V4.54C2.43-.06,6.74.09,11,.09Q256,.11,500.88,0c5,0,8.53,1.44,11.12,5.54v377c-3.58,4.17-8.23,4.65-13.44,4.65q-242.52-.14-485-.08c-1.66,0-3.33-.06-5,0A8.9,8.9,0,0,1,0,382.54Zm473.25-57.67L496.55,347V40.21l-23.3,22c-1.35,1.22-2.76,2.38-4,3.66Q404.57,130.48,340,195.12c-1.4,1.4-2.7,2.91-4,4.36-10,9.94-20,20-30.17,29.8-16.73,16.17-36.13,25-60,21.26-13.14-2-24.82-7.36-34.45-16.43-12-11.29-23.5-23.07-35.21-34.64a15.72,15.72,0,0,0-1.22-1.55Q96.64,119.65,18.35,41.41c-.85-.85-1.86-1.55-3-2.49v308.9c2.12-.75,3.15-2.26,4.42-3.53Q86.34,277.66,153,211.07c5-5,7.82-5,13-.41,2.43,4.39.79,7.84-2.42,11Q92.28,292.9,21.12,364.16c-2.06,2.06-3.46,4.78-5.41,7.52H474.5c0-6.39-.21-12.37.07-18.33a11.75,11.75,0,0,0-3.91-9.64q-61.27-61-122.37-122.19c-3.56-3.56-6-7.06-2.22-11.87,5.77-3.43,8.51-3.06,13.53,2Q414.4,266.41,469.21,321.2C470.49,322.49,471.9,323.65,473.25,324.86ZM474,15.62c-2-.15-4-.44-5.95-.44q-222.49,0-445,0H17.37l-.87,1.49c2.44,3,4.63,6.25,7.34,9Q81.39,83.33,139.06,140.91q39.24,39.24,78.47,78.51c10.9,10.94,23.88,17.47,39.39,17,14.79-.48,27.38-6.73,37.92-17.3Q383.5,130.27,472.28,41.56a29.64,29.64,0,0,0,2.83-3.92c7.88-6,15.09-12.66,20.39-22Z"/><path class="cls-2" d="M475.11,37.64a29.64,29.64,0,0,1-2.83,3.92q-88.7,88.78-177.43,177.52c-10.54,10.56-23.13,16.82-37.92,17.3-15.51.5-28.49-6-39.39-17q-39.18-39.31-78.47-78.51Q81.43,83.28,23.84,25.62c-2.72-2.72-4.91-6-7.34-9l.87-1.49H23.1q222.49,0,445,0c2,0,4,.29,5.95.44,0,2.15-.15,4.3,0,6.44C474.31,27.26,474.73,32.45,475.11,37.64Z"/><path class="cls-3" d="M176.11,199.47c11.72,11.57,23.23,23.35,35.21,34.64,9.63,9.07,21.31,14.38,34.45,16.43,23.84,3.71,43.24-5.09,60-21.26,10.16-9.83,20.12-19.86,30.17-29.8l10.16,10.18c-3.81,4.81-1.34,8.31,2.22,11.87q61.2,61.08,122.37,122.19a11.75,11.75,0,0,1,3.91,9.64c-.28,6-.07,11.94-.07,18.33H15.72c1.94-2.74,3.35-5.46,5.41-7.52q71.13-71.3,142.4-142.46c3.2-3.2,4.84-6.66,2.42-11Z"/><path class="cls-4" d="M176.11,199.47l-10.18,11.19c-5.16-4.62-8-4.55-13,.41Q86.35,277.67,19.77,344.3c-1.27,1.27-2.3,2.77-4.42,3.53V38.93c1.14.94,2.15,1.63,3,2.49q78.29,78.24,156.54,156.51A15.72,15.72,0,0,1,176.11,199.47Z"/><path class="cls-4" d="M346.07,209.66l-10.16-10.18c1.35-1.46,2.65-3,4-4.36q64.61-64.64,129.26-129.25c1.28-1.28,2.69-2.44,4-3.66.56,2,1.62,4,1.62,6q.12,125.33,0,250.67c0,2-1.06,4-1.63,6-1.35-1.22-2.76-2.38-4-3.66Q414.39,266.42,359.6,211.62C354.58,206.61,351.84,206.23,346.07,209.66Z"/><path class="cls-3" d="M473.25,324.86c.57-2,1.62-4,1.63-6q.12-125.33,0-250.67c0-2-1.06-4-1.62-6l23.3-22V347Z"/><path class="cls-5" d="M475.11,37.64c-.37-5.19-.79-10.38-1.1-15.58-.12-2.14,0-4.3,0-6.44H495.5C490.19,25,483,31.61,475.11,37.64Z"/></g></g></svg>