<svg width="61" height="53" viewBox="0 0 61 53" fill="none" xmlns="http://www.w3.org/2000/svg">
<rect x="6.2957" y="31.2511" width="10.2412" height="13.6544" fill="#FFE3E0"/>
<circle cx="8.41324" cy="26.5" r="8.0272" fill="#FFE3E0"/>
<rect width="10.2412" height="13.6544" transform="matrix(-1 0 0 1 54.7296 31.2511)" fill="#FFE3E0"/>
<circle r="8.0272" transform="matrix(-1 0 0 1 52.6121 26.5)" fill="#FFE3E0"/>
<path d="M11.3986 19.5331V5.55599L13.8119 2.03657H45.7884L47.699 3.04211L50.1123 5.55599L49.7101 19.5331L45.7884 23.3542L44.8834 32.7058L44.3807 33.8119H16.0242V32.7058L15.1192 23.3542L11.3986 19.5331Z" fill="#FFE3E0"/>
<circle cx="8.41324" cy="26.4999" r="4.51107" fill="#FFB0A9"/>
<rect x="11.3414" y="26.0836" width="1.58293" height="18.822" fill="#FFB0A9"/>
<circle r="4.51107" transform="matrix(-1 0 0 1 52.5639 26.4999)" fill="#FFB0A9"/>
<rect width="1.58293" height="19.081" transform="matrix(-1 0 0 1 49.6357 26.0836)" fill="#FFB0A9"/>
<path d="M61 26.5C61 24.235 60.1002 22.0629 58.4987 20.4613C56.8971 18.8597 54.7249 17.96 52.46 17.96C52.0509 17.9708 51.6431 18.0116 51.24 18.082V6.9556C51.1828 5.31588 50.4877 3.76328 49.3028 2.62846C48.1178 1.49364 46.5366 0.866281 44.896 0.879996H15.616C14.8301 0.886162 14.0533 1.04915 13.3313 1.35942C12.6092 1.66968 11.9563 2.12097 11.4109 2.68683C10.8655 3.25269 10.4385 3.92174 10.155 4.65476C9.87154 5.38777 9.73724 6.17 9.76 6.9556V18.082C9.35684 18.0117 8.94909 17.971 8.54 17.96C6.59932 17.9496 4.71331 18.6024 3.19431 19.8102C1.6753 21.0181 0.614441 22.7086 0.187418 24.6017C-0.239606 26.4949 -0.00717348 28.4771 0.846221 30.2201C1.69962 31.9631 3.12277 33.3623 4.88 34.186V41.14C4.82139 42.5742 5.28294 43.9814 6.17965 45.1023C7.07637 46.2232 8.34787 46.9823 9.76 47.24V52.12H12.2V47.24H48.8V52.12H51.24V47.0448C52.5935 46.742 53.8078 45.9974 54.6914 44.9283C55.575 43.8591 56.0776 42.5263 56.12 41.14V34.1616C57.5736 33.4753 58.8033 32.3916 59.6669 31.0358C60.5305 29.68 60.9926 28.1075 61 26.5ZM12.2 6.98C12.1736 6.51292 12.2421 6.04534 12.4013 5.60544C12.5605 5.16554 12.8071 4.76243 13.1263 4.42043C13.4455 4.07843 13.8307 3.80461 14.2586 3.61548C14.6865 3.42636 15.1482 3.32584 15.616 3.32H44.896C45.8882 3.31179 46.8459 3.68409 47.572 4.36031C48.2982 5.03654 48.7376 5.9653 48.8 6.9556V18.814C47.3444 19.5044 46.1139 20.5924 45.2504 21.9525C44.3869 23.3125 43.9257 24.889 43.92 26.5V32.6H17.08V26.5C17.0743 24.889 16.6131 23.3125 15.7496 21.9525C14.8861 20.5924 13.6555 19.5044 12.2 18.814V6.98ZM52.4112 32.6H51.24V35.04H52.4112C52.8366 35.0311 53.2607 34.9903 53.68 34.918V41.14C53.6236 42.1346 53.1868 43.0695 52.46 43.7508C51.7332 44.4322 50.7722 44.8079 49.776 44.8H10.736C10.2682 44.7941 9.80646 44.6936 9.37857 44.5045C8.95068 44.3154 8.56552 44.0416 8.24632 43.6996C7.92712 43.3576 7.68048 42.9545 7.52128 42.5146C7.36207 42.0747 7.29361 41.6071 7.32 41.14V34.918C7.72316 34.9883 8.13091 35.029 8.54 35.04H9.76V32.6H8.54C7.33353 32.6 6.15416 32.2422 5.15102 31.572C4.14788 30.9017 3.36603 29.949 2.90433 28.8344C2.44264 27.7197 2.32184 26.4932 2.55721 25.3099C2.79258 24.1267 3.37355 23.0397 4.22665 22.1866C5.07975 21.3335 6.16666 20.7526 7.34995 20.5172C8.53323 20.2818 9.75974 20.4026 10.8744 20.8643C11.989 21.326 12.9417 22.1079 13.612 23.111C14.2822 24.1142 14.64 25.2935 14.64 26.5V33.82C14.64 34.1436 14.7685 34.4539 14.9973 34.6827C15.2261 34.9115 15.5364 35.04 15.86 35.04H45.14C45.4636 35.04 45.7739 34.9115 46.0027 34.6827C46.2315 34.4539 46.36 34.1436 46.36 33.82V26.5C46.36 25.2915 46.7191 24.1102 47.3915 23.106C48.064 22.1018 49.0196 21.32 50.137 20.8598C51.2545 20.3996 52.4835 20.2817 53.6681 20.521C54.8527 20.7604 55.9395 21.3462 56.7906 22.2042C57.6418 23.0622 58.2188 24.1537 58.4487 25.3401C58.6785 26.5266 58.5507 27.7546 58.0815 28.8684C57.6123 29.9821 56.8229 30.9314 55.8134 31.5958C54.8038 32.2601 53.6197 32.6097 52.4112 32.6Z" fill="#D13528"/>
</svg>
