<svg width="12" height="14" viewBox="0 0 12 14" fill="none" xmlns="http://www.w3.org/2000/svg">
<path d="M11.3333 3H8.66667V2.33333C8.66667 1.8029 8.45595 1.29419 8.08088 0.919119C7.70581 0.544046 7.1971 0.333332 6.66667 0.333332H5.33333C4.8029 0.333332 4.29419 0.544046 3.91912 0.919119C3.54405 1.29419 3.33333 1.8029 3.33333 2.33333V3H0.666667C0.489856 3 0.320286 3.07024 0.195262 3.19526C0.0702379 3.32029 0 3.48985 0 3.66667C0 3.84348 0.0702379 4.01305 0.195262 4.13807C0.320286 4.26309 0.489856 4.33333 0.666667 4.33333H1.33333V11.6667C1.33333 12.1971 1.54405 12.7058 1.91912 13.0809C2.29419 13.456 2.8029 13.6667 3.33333 13.6667H8.66667C9.1971 13.6667 9.70581 13.456 10.0809 13.0809C10.456 12.7058 10.6667 12.1971 10.6667 11.6667V4.33333H11.3333C11.5101 4.33333 11.6797 4.26309 11.8047 4.13807C11.9298 4.01305 12 3.84348 12 3.66667C12 3.48985 11.9298 3.32029 11.8047 3.19526C11.6797 3.07024 11.5101 3 11.3333 3ZM4.66667 2.33333C4.66667 2.15652 4.7369 1.98695 4.86193 1.86193C4.98695 1.7369 5.15652 1.66667 5.33333 1.66667H6.66667C6.84348 1.66667 7.01305 1.7369 7.13807 1.86193C7.2631 1.98695 7.33333 2.15652 7.33333 2.33333V3H4.66667V2.33333ZM9.33333 11.6667C9.33333 11.8435 9.2631 12.013 9.13807 12.1381C9.01305 12.2631 8.84348 12.3333 8.66667 12.3333H3.33333C3.15652 12.3333 2.98695 12.2631 2.86193 12.1381C2.7369 12.013 2.66667 11.8435 2.66667 11.6667V4.33333H9.33333V11.6667Z" fill="#EE3124"/>
</svg>
