<svg width="156" height="66" viewBox="0 0 156 66" fill="none" xmlns="http://www.w3.org/2000/svg">
<rect width="156" height="66" rx="4" fill="#EFEEEE"/>
<path d="M97.0488 29.7196H81.9624V44.7787H97.0488V29.7196Z" fill="#FFD24F"/>
<path fill-rule="evenodd" clip-rule="evenodd" d="M97.0492 44.7785H81.9628L74.8438 52.8007H89.9302L97.0492 44.7785Z" fill="#EE3124"/>
<path fill-rule="evenodd" clip-rule="evenodd" d="M74.8983 52.7421L81.9626 44.7787V29.7196L74.8435 37.7417C63.4711 37.7417 68.4243 37.687 57.0557 37.687V35.6033C57.0557 33.2576 55.9572 33.6056 54.7101 34.8449L46.6645 42.867C46.0414 43.4965 45.6919 44.3464 45.6919 45.2322C45.6919 46.1179 46.0414 46.9678 46.6645 47.5973L54.7179 55.6742C55.9846 56.9408 57.0636 57.2379 57.0636 54.8923V52.836C68.436 52.836 63.4515 52.8086 74.91 52.8086L74.8983 52.7421Z" fill="#231F20"/>
<path d="M73.7138 20.826H58.6274V35.9124H73.7138V20.826Z" fill="#FFD24F"/>
<path fill-rule="evenodd" clip-rule="evenodd" d="M58.6274 20.8257H73.7178L80.8368 12.8035H65.7504L58.6274 20.8257Z" fill="#EE3124"/>
<path fill-rule="evenodd" clip-rule="evenodd" d="M80.8094 12.8662L73.7178 20.8258V35.9317L80.8368 27.8901C92.2366 27.8901 87.2561 27.9448 98.6246 27.9448V30.0285C98.6246 32.3351 99.7232 32.0262 100.97 30.7869L109.028 22.714C109.651 22.0845 110 21.2345 110 20.3488C110 19.4631 109.651 18.6131 109.028 17.9836L100.962 9.93415C99.6958 8.6675 98.6168 8.37038 98.6168 10.6926V12.7763C87.2443 12.7763 92.2288 12.8037 80.7977 12.8037L80.8094 12.8662Z" fill="#231F20"/>
</svg>
