<svg width="21" height="13" viewBox="0 0 21 13" fill="none" xmlns="http://www.w3.org/2000/svg">
<path d="M1.16406 7.27806L18.0312 7.27806L13.8906 11.4109C13.7435 11.558 13.6609 11.7575 13.6609 11.9656C13.6609 12.1736 13.7435 12.3731 13.8906 12.5202C14.0377 12.6674 14.2373 12.75 14.4453 12.75C14.6534 12.75 14.8529 12.6674 15 12.5202L20.4687 7.05149C20.5318 6.98285 20.5821 6.90347 20.6172 6.81712C20.6216 6.79126 20.6216 6.76485 20.6172 6.73899C20.6385 6.67582 20.6516 6.61019 20.6562 6.54368L20.6562 6.49681C20.6559 6.41386 20.64 6.33171 20.6094 6.25462C20.5769 6.16691 20.5264 6.08705 20.4609 6.02024L14.9922 0.551492C14.9196 0.478267 14.8332 0.420146 14.7379 0.380483C14.6427 0.340821 14.5406 0.320401 14.4375 0.320401C14.3344 0.320401 14.2323 0.340821 14.137 0.380483C14.0418 0.420147 13.9554 0.478267 13.8828 0.551492C13.8096 0.624119 13.7515 0.710527 13.7118 0.80573C13.6721 0.900933 13.6517 1.00305 13.6517 1.10618C13.6517 1.20931 13.6721 1.31143 13.7118 1.40663C13.7515 1.50183 13.8096 1.58824 13.8828 1.66087L18.0312 5.71556L1.16406 5.71556C0.956861 5.71556 0.758146 5.79787 0.611633 5.94438C0.465122 6.09089 0.382812 6.28961 0.382812 6.49681C0.382812 6.70401 0.465122 6.90272 0.611633 7.04923C0.758146 7.19575 0.956861 7.27806 1.16406 7.27806Z" fill="white"/>
</svg>
