<svg width="72" height="34" viewBox="0 0 72 34" fill="none" xmlns="http://www.w3.org/2000/svg">
<circle cx="13.7985" cy="26.6837" r="4.91458" fill="#FFB0A9"/>
<circle cx="53.1728" cy="26.6837" r="4.91458" fill="#FFB0A9"/>
<path d="M56.1223 11.7604H13.1752L19.5888 2.6676L22.2679 1.04389H35.9883L41.8336 2.0993L56.1223 11.7604Z" fill="#FFE3E0"/>
<path d="M71.5604 21.9281C69.5477 13.9689 67.6037 13.2065 61.1616 11.7961L60.1476 11.5446C55.9469 10.6068 48.3918 4.94238 45.9064 3.07455C43.2869 1.1394 40.1138 0.0995046 36.857 0.108912H24.1177C20.8624 0.108912 20.1152 0.528219 19.086 1.56505L18.9641 1.70228L15.0531 7.12277C14.5347 7.64881 14.1001 8.17485 13.7113 8.64753C12.7583 9.80634 12.1255 10.5763 10.9591 10.7974L4.79149 11.5598C1.86396 12.1163 0.0495071 13.8317 0.0495071 16.1188V27.1733C0.0495071 27.4766 0.169989 27.7674 0.384449 27.9819C0.598909 28.1964 0.889779 28.3168 1.19307 28.3168H6.97951C7.3281 29.829 8.17901 31.1784 9.39334 32.1446C10.6077 33.1109 12.1137 33.637 13.6655 33.637C15.2174 33.637 16.7234 33.1109 17.9377 32.1446C19.1521 31.1784 20.003 29.829 20.3516 28.3168H46.6231C46.9717 29.829 47.8226 31.1784 49.0369 32.1446C50.2512 33.1109 51.7573 33.637 53.3091 33.637C54.861 33.637 56.367 33.1109 57.5813 32.1446C58.7956 31.1784 59.6465 29.829 59.9951 28.3168H66.5973C67.3773 28.3151 68.1466 28.1357 68.8467 27.792C69.5469 27.4484 70.1595 26.9496 70.638 26.3337C71.1165 25.7178 71.4483 25.0009 71.6081 24.2375C71.7679 23.4741 71.7516 22.6843 71.5604 21.9281ZM15.48 10.096C15.8688 9.62337 16.2424 9.13545 16.7379 8.6704L16.8218 8.49505L20.7328 3.07455C21.2283 2.57901 21.5561 2.35792 24.0796 2.35792H36.8113C39.5768 2.35624 42.2691 3.24655 44.4884 4.89663C47.7971 7.38198 50.5874 9.31079 52.9813 10.7441H14.8625L15.48 10.096ZM13.6732 31.3663C12.7685 31.3663 11.8841 31.0981 11.1318 30.5954C10.3796 30.0928 9.79332 29.3784 9.44711 28.5426C9.10089 27.7067 9.01031 26.787 9.1868 25.8997C9.3633 25.0124 9.79896 24.1973 10.4387 23.5576C11.0784 22.9179 11.8935 22.4822 12.7808 22.3057C13.6681 22.1292 14.5878 22.2198 15.4237 22.566C16.2595 22.9122 16.9739 23.4985 17.4765 24.2508C17.9792 25.003 18.2474 25.8874 18.2474 26.7921C18.2474 28.0052 17.7655 29.1687 16.9077 30.0266C16.0498 30.8844 14.8863 31.3663 13.6732 31.3663ZM53.3167 31.3663C52.412 31.3663 51.5276 31.0981 50.7754 30.5954C50.0232 30.0928 49.4369 29.3784 49.0907 28.5426C48.7444 27.7067 48.6539 26.787 48.8304 25.8997C49.0069 25.0124 49.4425 24.1973 50.0822 23.5576C50.722 22.9179 51.537 22.4822 52.4243 22.3057C53.3116 22.1292 54.2314 22.2198 55.0672 22.566C55.9031 22.9122 56.6175 23.4985 57.1201 24.2508C57.6227 25.003 57.891 25.8874 57.891 26.7921C57.891 28.0052 57.4091 29.1687 56.5512 30.0266C55.6934 30.8844 54.5299 31.3663 53.3167 31.3663ZM68.8311 24.9395C68.5671 25.2802 68.2284 25.5557 67.8411 25.7447C67.4538 25.9337 67.0283 26.0312 66.5973 26.0297H60.1247C59.9308 24.3581 59.1293 22.8161 57.8726 21.6969C56.616 20.5777 54.9919 19.9593 53.3091 19.9593C51.6263 19.9593 50.0022 20.5777 48.7456 21.6969C47.489 22.8161 46.6874 24.3581 46.4935 26.0297H20.4812C20.2872 24.3581 19.4857 22.8161 18.2291 21.6969C16.9724 20.5777 15.3483 19.9593 13.6655 19.9593C11.9828 19.9593 10.3586 20.5777 9.10202 21.6969C7.8454 22.8161 7.04389 24.3581 6.8499 26.0297H2.33664V16.1188C2.33664 14.5102 4.5399 13.9689 5.1498 13.8317L11.1573 13.0693H57.4107C58.1321 13.3869 58.8794 13.642 59.6444 13.8317L60.6737 14.0604C66.5287 15.3412 67.5884 15.5851 69.3419 22.5152C69.4457 22.9316 69.4537 23.3661 69.3652 23.7861C69.2767 24.206 69.0941 24.6004 68.8311 24.9395Z" fill="#D13528"/>
</svg>
