<svg width="18" height="10" viewBox="0 0 18 10" fill="none" xmlns="http://www.w3.org/2000/svg"> <path d="M16.4687 4.39068H2.97497L6.28747 1.08443C6.40516 0.96674 6.47128 0.807119 6.47128 0.64068C6.47128 0.474241 6.40516 0.31462 6.28747 0.19693C6.16978 0.0792401 6.01016 0.0131226 5.84372 0.0131226C5.67728 0.0131226 5.51766 0.0792401 5.39997 0.19693L1.02497 4.57193C0.974517 4.62685 0.9343 4.69035 0.906219 4.75943C0.902723 4.78012 0.902723 4.80124 0.906219 4.82193C0.889179 4.87247 0.878677 4.92498 0.874969 4.97818V5.01568C0.875259 5.08204 0.887978 5.14776 0.912469 5.20943V5.20943C0.93841 5.27959 0.978877 5.34349 1.03122 5.39693L5.40622 9.77193C5.46432 9.83051 5.53345 9.87701 5.60961 9.90874C5.68577 9.94047 5.76746 9.9568 5.84997 9.9568C5.93248 9.9568 6.01417 9.94047 6.09033 9.90874C6.16649 9.87701 6.23562 9.83051 6.29372 9.77193C6.3523 9.71383 6.3988 9.6447 6.43053 9.56854C6.46226 9.49238 6.47859 9.41069 6.47859 9.32818C6.47859 9.24567 6.46226 9.16398 6.43053 9.08782C6.3988 9.01166 6.3523 8.94253 6.29372 8.88443L2.97497 5.64068H16.4687C16.6345 5.64068 16.7935 5.57483 16.9107 5.45762C17.0279 5.34041 17.0937 5.18144 17.0937 5.01568C17.0937 4.84992 17.0279 4.69095 16.9107 4.57374C16.7935 4.45653 16.6345 4.39068 16.4687 4.39068Z" fill="black"/> </svg>