<svg width="24" height="25" viewBox="0 0 24 25" fill="none" xmlns="http://www.w3.org/2000/svg">
<path d="M12 12.4766C10.9 12.4766 10 12.1266 9.3 11.4266C8.6 10.7266 8.25 9.82656 8.25 8.72656C8.25 7.62656 8.6 6.72656 9.3 6.02656C10 5.32656 10.9 4.97656 12 4.97656C13.1 4.97656 14 5.32656 14.7 6.02656C15.4 6.72656 15.75 7.62656 15.75 8.72656C15.75 9.82656 15.4 10.7266 14.7 11.4266C14 12.1266 13.1 12.4766 12 12.4766ZM4 20.5016V18.1516C4 17.5182 4.15833 16.9766 4.475 16.5266C4.79167 16.0766 5.2 15.7349 5.7 15.5016C6.81667 15.0016 7.8875 14.6266 8.9125 14.3766C9.9375 14.1266 10.9667 14.0016 12 14.0016C13.0333 14.0016 14.0583 14.1307 15.075 14.3891C16.0917 14.6474 17.1583 15.0182 18.275 15.5016C18.7917 15.7349 19.2083 16.0766 19.525 16.5266C19.8417 16.9766 20 17.5182 20 18.1516V20.5016H4ZM5.5 19.0016H18.5V18.1516C18.5 17.8849 18.4208 17.6307 18.2625 17.3891C18.1042 17.1474 17.9083 16.9682 17.675 16.8516C16.6083 16.3349 15.6333 15.9807 14.75 15.7891C13.8667 15.5974 12.95 15.5016 12 15.5016C11.05 15.5016 10.125 15.5974 9.225 15.7891C8.325 15.9807 7.35 16.3349 6.3 16.8516C6.06667 16.9682 5.875 17.1474 5.725 17.3891C5.575 17.6307 5.5 17.8849 5.5 18.1516V19.0016ZM12 10.9766C12.65 10.9766 13.1875 10.7641 13.6125 10.3391C14.0375 9.91406 14.25 9.37656 14.25 8.72656C14.25 8.07656 14.0375 7.53906 13.6125 7.11406C13.1875 6.68906 12.65 6.47656 12 6.47656C11.35 6.47656 10.8125 6.68906 10.3875 7.11406C9.9625 7.53906 9.75 8.07656 9.75 8.72656C9.75 9.37656 9.9625 9.91406 10.3875 10.3391C10.8125 10.7641 11.35 10.9766 12 10.9766Z" fill="#74676A"/>
</svg>
