<svg width="132" height="42" viewBox="0 0 132 42" fill="none" xmlns="http://www.w3.org/2000/svg">
<path d="M109.907 14.9992L115.371 21.0239L120.622 14.9992H131.847L120.877 27.3375L132 39.7693H120.325L114.912 33.7106L109.55 39.7693H98.2822L109.303 27.3885L98.2822 14.9992H109.907Z" fill="#F15B22"/>
<path d="M98.2817 14.999V23.369H85.7989V31.0507H98.2817V39.7691H76.6216V0.757172H98.2817V9.45011H85.7989V14.999H98.2817Z" fill="#F15B22"/>
<path d="M67.4871 0.757248V16.724H67.3851C66.4581 15.6685 65.3031 14.8377 64.0075 14.2945C62.712 13.7512 61.3099 13.5098 59.9073 13.5885C53.8996 13.5885 49.3789 17.6758 47.7899 23.0717C45.9799 17.1234 41.3063 13.478 34.3808 13.478C28.7555 13.478 24.3113 16.0272 22 20.1145V15.016H10.3669V9.46717H23.0537V0.757248H0V39.7777H10.3669V23.3776H20.6999C20.3805 24.6386 20.2207 25.9346 20.224 27.2354C20.224 35.376 26.4442 41.0863 34.3808 41.0863C41.0514 41.0863 45.4276 37.9508 47.7729 32.2404H38.893C37.6949 33.9399 36.7771 34.4668 34.3808 34.4668C32.9966 34.4271 31.682 33.8509 30.7148 32.8599C29.7475 31.8689 29.2034 30.5406 29.1974 29.1559H47.3055C48.0873 35.6225 53.1263 41.1968 60.0518 41.1968C61.5109 41.1982 62.9477 40.839 64.2345 40.1511C65.5213 39.4632 66.6182 38.468 67.4276 37.254H67.5295V39.8032H76.6219V0.757248H67.4871ZM29.4608 23.522C29.6709 22.3756 30.2751 21.3388 31.1689 20.5908C32.0627 19.8429 33.1899 19.4309 34.3554 19.4262C35.5422 19.3682 36.7079 19.7563 37.6231 20.5142C38.5383 21.2722 39.1368 22.3451 39.3009 23.522H29.4608ZM61.9212 33.8635C58.5222 33.8635 56.4573 30.7279 56.4573 27.4479C56.4573 23.9469 58.2758 20.5819 61.9212 20.5819C65.6941 20.5819 67.1982 23.9809 67.1982 27.4479C67.2236 30.7364 65.6261 33.8295 61.9382 33.8295L61.9212 33.8635Z" fill="#322876"/>
</svg>
