<svg width="241" height="80" viewBox="0 0 241 80" fill="none" xmlns="http://www.w3.org/2000/svg"> <path d="M63.0376 25.0779H44.8114V43.271H63.0376V25.0779Z" fill="#FFD24F"/> <path fill-rule="evenodd" clip-rule="evenodd" d="M63.0377 43.2709H44.8115L36.2108 52.9625H54.437L63.0377 43.2709Z" fill="#EE3124"/> <path fill-rule="evenodd" clip-rule="evenodd" d="M36.2769 52.8918L44.8114 43.271V25.0779L36.2108 34.7695C22.4714 34.7695 28.4555 34.7034 14.7209 34.7034V32.186C14.7209 29.3522 13.3938 29.7726 11.8871 31.2698L2.16712 40.9614C1.41433 41.722 0.992065 42.7488 0.992065 43.8189C0.992065 44.889 1.41433 45.9158 2.16712 46.6763L11.8966 56.4341C13.4268 57.9644 14.7304 58.3233 14.7304 55.4895V53.0052C28.4697 53.0052 22.4478 52.9721 36.291 52.9721L36.2769 52.8918Z" fill="#231F20"/> <path d="M34.8458 14.3329H16.6196V32.5591H34.8458V14.3329Z" fill="#FFD24F"/> <path fill-rule="evenodd" clip-rule="evenodd" d="M16.6196 14.3329H34.8505L43.4512 4.64124H25.225L16.6196 14.3329Z" fill="#EE3124"/> <path fill-rule="evenodd" clip-rule="evenodd" d="M43.418 4.71683L34.8505 14.3329V32.5827L43.4511 22.8675C57.2235 22.8675 51.2063 22.9336 64.9409 22.9336V25.451C64.9409 28.2375 66.2681 27.8644 67.7747 26.3672L77.5089 16.6142C78.2617 15.8536 78.684 14.8268 78.684 13.7567C78.684 12.6866 78.2617 11.6598 77.5089 10.8993L67.7653 1.17455C66.235 -0.355709 64.9315 -0.71466 64.9315 2.09082V4.6082C51.1922 4.6082 57.214 4.64126 43.4039 4.64126L43.418 4.71683Z" fill="#231F20"/> <path d="M83.5452 37.3057H96.8736C96.8405 39.5161 97.3175 40.9425 98.2338 41.5895C99.0167 42.0276 99.8887 42.2828 100.784 42.3358C101.837 42.4019 105.139 42.4727 110.703 42.5058C116.517 42.4727 120.021 42.4397 121.178 42.4019C122.121 42.3839 123.053 42.2 123.932 41.8587C124.952 41.4526 125.429 40.3285 125.429 38.4912C125.429 37.164 125.122 36.2478 124.409 35.8038C123.696 35.3598 122.232 35.1237 120.021 35.0576C118.321 35.0576 114.717 34.9206 109.243 34.6845C103.576 34.4105 99.9577 34.2405 98.2574 34.2121C95.6896 34.1997 93.1323 33.8826 90.6392 33.2675C89.036 32.8616 87.5894 31.9887 86.4829 30.7596C84.7826 28.8232 83.9325 25.5643 83.9325 21.0349C83.9325 15.934 84.8771 12.3303 86.823 10.2191C88.3202 8.58497 90.6014 7.56479 93.6572 7.12555C96.713 6.68631 102.943 6.44543 112.327 6.44543C118.992 6.44543 123.663 6.61546 126.303 6.98858C130.45 7.56479 133.274 8.72194 134.837 10.4553C136.401 12.1886 137.152 15.1122 137.152 19.1929C137.152 19.566 137.119 20.2792 137.119 21.3372H123.842C123.837 20.4543 123.723 19.5755 123.502 18.7206C123.33 18.246 122.995 17.8477 122.557 17.5965C121.571 17.1636 120.508 16.9323 119.431 16.9164C117.901 16.8125 114.736 16.7794 109.876 16.7794C104.029 16.7794 100.491 16.9495 99.1973 17.3226C97.9032 17.6957 97.3081 18.6828 97.3081 20.35C97.3081 22.0173 97.9551 22.9005 99.1973 23.2736C100.284 23.5475 105.115 23.8168 113.787 24.0907C121.098 24.2938 125.925 24.563 128.376 24.8747C130.827 25.1864 132.797 25.7249 134.261 26.575C135.864 27.4918 137.101 28.933 137.766 30.6557C138.446 32.3906 138.786 34.8734 138.786 38.1039C138.786 42.3547 138.21 45.5191 137.085 47.5925C136.259 49.0669 135.002 50.2535 133.482 50.9931C131.952 51.7393 129.807 52.2494 127.021 52.5233C124.064 52.7595 118.519 52.8965 110.424 52.8965C103.623 52.8965 98.6164 52.7264 95.3575 52.3864C92.0986 52.0463 89.6898 51.3993 88.0462 50.4972C86.4722 49.6549 85.2351 48.2977 84.5417 46.6526C83.8947 45.0893 83.5546 42.6758 83.5546 39.4075L83.5452 37.3057Z" fill="#231F20"/> <path d="M143.532 7.12561H191.278V17.7335H157.305V26.2681H189.61V36.6776H157.305V52.2495H143.532V7.12561Z" fill="#231F20"/> <path d="M194.404 7.12561H208.857V40.7206H240.992V52.2495H194.404V7.12561Z" fill="#231F20"/> <path d="M1.08057 60.3447H6.99853L12.0994 74.6272H13.1526L17.4695 60.3447H24.4785L28.8284 74.6272H29.9194L35.0534 60.3447H41.1744L33.7923 79.388H24.8185L21.007 65.4456L17.2333 79.388H8.25486L1.08057 60.3447Z" fill="#EE3124"/> <path d="M54.64 60.0708C57.4663 60.0164 60.2934 60.1189 63.1084 60.3778C65.3534 60.6927 66.7136 61.7475 67.1891 63.5422C67.5622 64.7986 67.7322 66.9098 67.7322 69.8664C67.7322 72.823 67.5622 74.9673 67.1891 76.1905C66.7168 78.0278 65.3518 79.081 63.1084 79.388C60.3044 79.6464 57.4883 79.7489 54.673 79.695H54.64V74.7264H54.673C56.2267 74.7594 57.781 74.7137 59.33 74.5894C59.9355 74.5662 60.5234 74.3785 61.0302 74.0463C61.389 73.7497 61.6398 73.3429 61.7434 72.8891C61.8757 72.0679 61.9326 71.2364 61.9135 70.4048C61.9194 69.394 61.8737 68.3835 61.7765 67.3773C61.7235 66.8708 61.5485 66.3846 61.2664 65.9604C61.0765 65.7344 60.8432 65.5485 60.5804 65.4139C60.3176 65.2792 60.0306 65.1985 59.7361 65.1764C58.0392 65.0457 56.3368 65 54.6353 65.0394L54.64 60.0708ZM54.64 79.6903C51.8027 79.7436 48.9646 79.6411 46.1385 79.3833C43.9281 79.0763 42.5679 78.0231 42.0578 76.1858C41.7178 74.961 41.5477 72.8183 41.5477 69.7578C41.5477 66.8673 41.7178 64.7923 42.0578 63.5328C42.5679 61.7317 43.9281 60.6769 46.1385 60.3684C48.9646 60.1106 51.8027 60.0081 54.64 60.0614V65.0253C51.5795 65.0253 49.7091 65.0914 49.0951 65.2614C48.7641 65.3148 48.455 65.4612 48.2041 65.6837C47.9532 65.9061 47.7708 66.1955 47.6782 66.5178C47.4421 67.1648 47.3382 68.407 47.3382 70.3623C47.3195 71.2048 47.3764 72.0473 47.5082 72.8797C47.7444 73.8668 48.4528 74.4099 49.6147 74.5469C51.2764 74.6872 52.9442 74.7439 54.6116 74.7169L54.64 79.6903Z" fill="#EE3124"/> <path d="M81.8447 60.3447H84.022C87.3282 60.3778 89.2929 60.4109 89.94 60.4817C90.6134 60.5388 91.2623 60.761 91.8292 61.1288C92.5253 61.5263 93.0476 62.1699 93.2933 62.9329C93.6173 64.1054 93.7544 65.3215 93.6995 66.5366C93.7382 67.5625 93.659 68.5894 93.4634 69.5971C93.3054 70.2084 92.9603 70.755 92.4763 71.1605C91.7971 71.6502 90.9966 71.9443 90.162 72.0106C91.3852 72.1145 92.2684 72.4546 92.7785 73.0639C93.0902 73.4484 93.3013 73.9045 93.3925 74.391C93.4826 75.4654 93.5172 76.5437 93.4964 77.6216V79.388H87.7816V78.3678C87.8082 77.6173 87.7623 76.8661 87.6446 76.1244C87.6122 75.7418 87.4713 75.3764 87.2384 75.0712C86.9958 74.8436 86.6858 74.7011 86.3552 74.665C85.5713 74.5763 84.7823 74.5415 83.9937 74.5611H81.8494V69.7955H83.9937C85.4106 69.7625 86.2371 69.7625 86.5111 69.7294C86.7641 69.7078 87.0084 69.6269 87.2243 69.4932C87.4823 69.3405 87.6755 69.0985 87.7674 68.8131C87.8804 68.3498 87.9265 67.8726 87.9044 67.3962C87.9382 66.9174 87.8805 66.4365 87.7343 65.9793C87.6862 65.8328 87.6061 65.6988 87.4999 65.5869C87.3938 65.475 87.2641 65.388 87.1203 65.3322C86.8992 65.2205 86.6549 65.1623 86.4072 65.1622C86.1002 65.1292 85.2831 65.1292 83.9606 65.0961H81.8542L81.8447 60.3447ZM70.0088 79.388V60.3447H81.8447V65.1055H75.8276V69.8002H81.8447V74.5611H75.8276V79.388H70.0088Z" fill="#EE3124"/> <path d="M95.7209 60.3447H101.804V74.5563H115.34V79.388H95.7209V60.3447Z" fill="#EE3124"/> <path d="M129.217 60.3447H130.374C132.82 60.3447 134.422 60.3778 135.168 60.4108C135.962 60.4497 136.752 60.5523 137.529 60.7179C139.419 61.124 140.694 62.182 141.27 63.9484C141.477 64.661 141.625 65.3891 141.714 66.1257C141.783 66.8751 141.818 68.0307 141.818 69.5924C141.839 70.8865 141.793 72.1807 141.681 73.47C141.589 74.2721 141.418 75.0631 141.171 75.8316C140.928 76.6197 140.472 77.3256 139.854 77.8714C139.235 78.4172 138.479 78.7818 137.666 78.9251C136.791 79.1089 135.904 79.2336 135.012 79.2983C134.096 79.3644 132.565 79.3644 130.421 79.3644H129.231V74.5563H130.454C131.559 74.5733 132.663 74.5165 133.76 74.3863C134.285 74.3471 134.789 74.1712 135.225 73.8762C135.588 73.5475 135.828 73.1041 135.905 72.6199C136.063 71.7444 136.131 70.8549 136.108 69.9655C136.122 69.0667 136.065 68.1681 135.938 67.2781C135.856 66.7855 135.658 66.3193 135.361 65.9179C134.973 65.5527 134.475 65.3254 133.945 65.2709C132.76 65.1299 131.567 65.0731 130.374 65.1008H129.217V60.3447ZM116.668 79.388V60.3447H129.217V65.1055H122.378V74.5516H129.212V79.388H116.668Z" fill="#EE3124"/> <path d="M142.101 60.3447H147.986L153.12 74.6272H154.173L158.495 60.3447H165.499L169.816 74.6272H170.907L176.041 60.3447H182.195L174.784 79.388H165.839L162.032 65.4456L158.221 79.388H149.242L142.101 60.3447Z" fill="#EE3124"/> <path d="M189.27 60.3447H183.182V79.388H189.27V60.3447Z" fill="#EE3124"/> <path d="M204.502 60.3447H205.659C208.106 60.3447 209.707 60.3778 210.453 60.4108C211.247 60.4497 212.037 60.5523 212.814 60.7179C214.704 61.124 215.979 62.182 216.555 63.9484C216.765 64.6582 216.901 65.3879 216.961 66.1257C217.076 67.2775 217.122 68.4352 217.098 69.5924C217.098 71.2927 217.032 72.5868 216.961 73.47C216.869 74.2721 216.699 75.0631 216.451 75.8316C216.208 76.6197 215.752 77.3256 215.134 77.8714C214.516 78.4172 213.759 78.7818 212.947 78.9251C212.071 79.1089 211.184 79.2336 210.292 79.2983C209.376 79.3644 207.808 79.3644 205.702 79.3644H204.511V74.5563H205.735C206.825 74.5743 207.915 74.5175 208.998 74.3863C209.534 74.352 210.05 74.1759 210.495 73.8762C210.846 73.5377 211.084 73.0988 211.175 72.6199C211.334 71.7444 211.402 70.8549 211.379 69.9655C211.393 69.0667 211.336 68.1681 211.209 67.2781C211.129 66.778 210.917 66.3083 210.595 65.9179C210.23 65.5513 209.749 65.3226 209.234 65.2709C208.05 65.131 206.856 65.0742 205.664 65.1008H204.507L204.502 60.3447ZM191.92 79.388V60.3447H204.502V65.1055H197.635V74.5516H204.502V79.388H191.92Z" fill="#EE3124"/> <path d="M219.365 60.3447H240.449V64.8316H225.075V67.5851H239.665V71.7697H225.075V74.8303H240.548V79.388H219.365V60.3447Z" fill="#EE3124"/> </svg>